<?xml version="1.0" encoding="UTF-8" standalone="no"?>
<!-- Created with Inkscape (http://www.inkscape.org/) -->

<svg
   xmlns:dc="http://purl.org/dc/elements/1.1/"
   xmlns:cc="http://creativecommons.org/ns#"
   xmlns:rdf="http://www.w3.org/1999/02/22-rdf-syntax-ns#"
   xmlns:svg="http://www.w3.org/2000/svg"
   xmlns="http://www.w3.org/2000/svg"
   xmlns:sodipodi="http://sodipodi.sourceforge.net/DTD/sodipodi-0.dtd"
   xmlns:inkscape="http://www.inkscape.org/namespaces/inkscape"
   width="744.09448819"
   height="1052.3622047"
   id="svg2"
   version="1.1"
   inkscape:version="0.47 r22583"
   sodipodi:docname="ram jumping.svg">
  <defs
     id="defs4">
    <inkscape:perspective
       sodipodi:type="inkscape:persp3d"
       inkscape:vp_x="0 : 526.18109 : 1"
       inkscape:vp_y="0 : 1000 : 0"
       inkscape:vp_z="744.09448 : 526.18109 : 1"
       inkscape:persp3d-origin="372.04724 : 350.78739 : 1"
       id="perspective10" />
    <inkscape:perspective
       id="perspective2824"
       inkscape:persp3d-origin="0.5 : 0.33333333 : 1"
       inkscape:vp_z="1 : 0.5 : 1"
       inkscape:vp_y="0 : 1000 : 0"
       inkscape:vp_x="0 : 0.5 : 1"
       sodipodi:type="inkscape:persp3d" />
  </defs>
  <sodipodi:namedview
     id="base"
     pagecolor="#ffffff"
     bordercolor="#666666"
     borderopacity="1.0"
     inkscape:pageopacity="0.0"
     inkscape:pageshadow="2"
     inkscape:zoom="0.7"
     inkscape:cx="518.1998"
     inkscape:cy="905.12065"
     inkscape:document-units="px"
     inkscape:current-layer="layer1"
     showgrid="false"
     inkscape:window-width="1024"
     inkscape:window-height="538"
     inkscape:window-x="-8"
     inkscape:window-y="-8"
     inkscape:window-maximized="1" />
  <metadata
     id="metadata7">
    <rdf:RDF>
      <cc:Work
         rdf:about="">
        <dc:format>image/svg+xml</dc:format>
        <dc:type
           rdf:resource="http://purl.org/dc/dcmitype/StillImage" />
        <dc:title />
      </cc:Work>
    </rdf:RDF>
  </metadata>
  <g
     inkscape:label="Layer 1"
     inkscape:groupmode="layer"
     id="layer1">
    <path
       style="fill:#000000"
       d="m 81.783383,540.17522 c 3.33581,-10.54835 16.705,-18.01294 17.33578,-28.55016 4.699987,-4.64627 14.458117,-16.29443 19.045787,-17.65429 16.65284,-11.63347 -8.15539,4.04744 8.9124,-6.56475 8.58804,-3.71818 18.12844,-6.88573 24.34869,-12.97112 7.64805,-5.1754 16.2837,-11.15943 21.6809,-19.5787 11.4573,-6.34329 13.5144,-14.51655 16.407,-22.67307 -0.6456,-12.88704 0.087,-11.05357 1.0695,-1.24951 1.5515,-10.70506 -4.64,-30.09061 -0.9759,-25.95896 -0.3109,-10.70282 1.7232,-22.90127 5.0025,-28.92893 1.483,-5.04909 6.0898,-9.476 5.7347,-8.90244 1.8016,-7.60423 14.6476,-13.48317 25.0839,-21.0702 -23.6393,15.17664 10.3223,-9.83048 18.8085,-13.56175 7.5977,-6.76213 16.9034,-4.06895 24.1615,-11.43362 9.2449,-3.97789 29.6942,-0.48277 43.837,1.90017 10.4962,-0.73034 17.7128,-1.94532 25.4873,-3.77096 9.666,-1.46247 27.6466,-1.99203 32.7056,-3.19708 10.9924,-0.4719 15.2572,-4.22334 24.4145,-3.91795 8.4408,-2.24883 12.3836,-6.46828 19.5664,-9.58648 7.9207,-4.09277 11.4963,-6.74825 18.3646,-11.47631 1.0297,-0.58866 18.7219,-14.232 5.6546,-4.09549 5.5588,-6.20303 10.9059,-7.14961 16.2567,-8.60715 3.2154,-3.39817 11.1282,-5.4753 17.9709,-7.31531 6.2088,-3.1077 26.6902,-1.3914 21.2296,-19.65756 4.3819,-5.60812 1.807,-16.06153 5.775,-22.53397 2.2004,-13.2422 -0.65514,-15.36517 -2.2817,-20.25082 -0.7934,-3.15821 -0.7944,-11.43908 -0.8693,-15.16443 0.92311,-3.61794 6.1998,-23.12854 -5.7522,-22.21439 -18.8484,-25.69739 12.5805,-14.95859 16.3017,-16.18878 -19.77737,-8.67598 -29.64902,-5.16043 -47.04168,4.51893 -3.89474,2.1675 -9.52241,14.94481 -12.63852,22.56448 -3.11611,7.61967 18.7987,34.87894 -3.4362,23.76567 -20.1743,-15.15982 -9.2707,-46.48767 -1.7643,-58.09792 4.30548,-5.34539 13.79373,-21.22373 39.395,-27.32821 22.9406,-6.46774 44.2196,6.09177 66.5588,2.61489 8.5126,3.42193 7.5351,3.91672 10.0361,7.93583 3.65619,4.13892 21.9433,19.52247 20.7784,31.04672 1.8263,11.34125 11.5706,11.27782 15.4495,15.98724 11.4987,6.6453 11.1675,5.07748 16.2181,10.19772 14.6374,6.87781 31.8837,27.58656 9.0203,41.6804 -8.2991,3.62272 -22.729,-1.136 -28.7062,1.9842 -10.0497,0.13701 -22.6611,6.25861 -17.2504,24.69635 5.8144,25.8022 -0.6746,51.86719 3.9183,77.63661 10.965,25.82823 -12.3549,41.55601 -21.4529,62.235 3.1746,8.88238 18.1507,11.04207 22.8682,17.06659 15.3574,3.91995 11.8752,31.38386 0.305,35.74696 -11.5694,1.56765 -25.8365,6.04932 -35.0349,11.8461 -7.4689,2.47836 -37.6666,15.23862 -30.828,12.84203 -16.8464,1.52529 -32.8137,9.4683 -50.3073,8.86181 -21.0686,12.85183 -17.4826,-27.78762 -2.6627,-27.75576 18.5259,-1.17028 38.5769,-7.63906 55.3127,-14.19482 11.2754,-1.13607 12.5459,-6.05947 19.8096,-6.84545 5.0369,-8.16337 -13.2987,-9.44253 -20.161,-5.76273 -32.1207,10.51236 -65.5554,15.99881 -99.2675,17.53582 -20.912,6.15185 -46.1071,-0.58492 -63.8447,6.5994 -13.1576,-5.51251 -26.9526,-9.5947 -42.435,-1.47595 -12.2016,2.39398 -19.6859,11.2272 -30.7248,20.17663 -8.3651,11.00417 -20.6652,14.94384 -30.7093,20.42462 -11.1747,5.80561 -24.4097,5.35048 -34.1826,8.69099 -10.8987,4.53131 -26.4576,10.50593 -41.1219,13.04567 -8.2546,1.89666 -13.14532,2.44427 -19.49158,5.92214 -7.817,1.81292 -8.25383,3.55721 -15.14375,6.42495 -7.55734,1.0861 -25.61795,25.89121 -23.93699,21.84549 -10.57663,13.01456 -17.389787,31.90458 -32.529527,41.35123 -10.34059,-6.91318 -19.0559,-40.02214 -0.27421,-48.60962 z"
       id="path2891"
       sodipodi:nodetypes="cccccccccccccccccccccccccccccszcccccccccccccccccccccccccccccccccc" />
  </g>
</svg>
